[Header]
FileType HTR
DataType HTRS
FileVersion 1
NumSegments 22
NumFrames 5
DataFrameRate 24
EulerRotationOrder ZYX
CalibrationUnits mm
RotationUnits Degrees
GlobalAxisofGravity Y
BoneLengthAxis Y
ScaleFactor 1.0
[SegmentNames&Hierarchy]
reference	GLOBAL
Hips	reference
Spine	Hips
Spine1	Spine
Neck	Spine1
Head	Neck
LeftShoulder	Spine1
LeftArm	LeftShoulder
LeftForeArm	LeftArm
LeftHand	LeftForeArm
RightShoulder	Spine1
RightArm	RightShoulder
RightForeArm	RightArm
RightHand	RightForeArm
LeftUpLeg	Hips
LeftLeg	LeftUpLeg
LeftFoot	LeftLeg
LeftToeBase	LeftFoot
RightUpLeg	Hips
RightLeg	RightUpLeg
RightFoot	RightLeg
RightToeBase	RightFoot
[BasePosition]
reference	0	0	0	0	0	0	1
Hips	0	0	0	0	0	0	1
Spine	0	0	0	0	-0	90	1
Spine1	0	0	0	0	0	0	1
Neck	0	0	0	-7.352430803	-7.352430803	90	1
Head	0	0	0	0	-0	90	1
LeftShoulder	0	0	0	0	0	0	1
LeftArm	0	0	0	0	0	0	1
LeftForeArm	0	0	0	0	0	0	1
LeftHand	0	0	0	0	0	0	1
RightShoulder	0	0	0	0	-0	180	1
RightArm	0	0	0	0	-0	180	1
RightForeArm	0	0	0	0	-0	180	1
RightHand	0	0	0	0	-0	180	1
LeftUpLeg	0	0	0	0	-0	-90	1
LeftLeg	0	0	0	0	-0	-90	1
LeftFoot	0	0	0	66.57150701	-66.57150701	-90	1
LeftToeBase	0	0	0	0	-90	0	1
RightUpLeg	0	0	0	0	-0	-90	1
RightLeg	0	0	0	0	-0	-90	1
RightFoot	0	0	0	66.57150701	-66.57150701	-90	1
RightToeBase	0	0	0	0	-90	0	1
[reference]
1	0	0	0	0	-0	0	1.0
2	0	0	0	0	-0	0	1.0
3	0	0	0	0	-0	0	1.0
4	0	0	0	0	-0	0	1.0
5	0	0	0	0	-0	0	1.0
[Hips]
1	5.374959946	8.829719543	0.8458899856	-17.40892982	-87.5737381	17.39870262	1.0
2	5.374959946	8.829719543	0.8458899856	-18.28156662	-87.52764893	18.49474716	1.0
3	5.374959946	8.829719543	0.8458899856	-17.4509201	-87.42037964	17.96946907	1.0
4	5.374959946	8.829719543	0.8458899856	-16.80678177	-87.32133484	17.53969193	1.0
5	5.374959946	8.829719543	0.8458899856	-15.74541664	-87.2226181	16.76228714	1.0
[Spine]
1	0	0.7478299737	0	-13.74517345	1.373163342	-91.18617249	1.0
2	0	0.7478299737	0	-13.69498348	1.352369785	-91.26560974	1.0
3	0	0.7478299737	0	-13.80443668	1.240842223	-91.17172241	1.0
4	0	0.7478299737	0	-13.79578972	1.163138866	-91.23478699	1.0
5	0	0.7478299737	0	-13.8598175	1.092768431	-91.23232269	1.0
[Spine1]
1	0	2.049309969	0	13.05529499	0.5527134538	-0.41796875	1.0
2	0	2.049309969	0	12.73512554	0.5432397723	-0.4199973345	1.0
3	0	2.049309969	0	12.59390545	0.5251547694	-0.5230622292	1.0
4	0	2.049309969	0	12.61183643	0.4916284084	-0.5440821648	1.0
5	0	2.049309969	0	12.37510586	0.4642817378	-0.4654619396	1.0
[Neck]
1	0	2.231709957	0	2.884379864	7.188872337	-88.91519165	1.0
2	0	2.231709957	0	3.017385721	7.098858356	-88.88624573	1.0
3	0	2.231709957	0	2.816173077	7.250143528	-89.00772095	1.0
4	0	2.231709957	0	2.894129992	7.112052917	-88.97950745	1.0
5	0	2.231709957	0	2.775542498	7.24704361	-89.02161407	1.0
[Head]
1	0	1.413589954	0.1823999882	-11.37166977	-0.09094293416	-89.19993591	1.0
2	0	1.413589954	0.1823999882	-11.486763	-0.1780063063	-89.10223389	1.0
3	0	1.413589954	0.1823999882	-11.39532852	-0.04714051634	-88.99865723	1.0
4	0	1.413589954	0.1823999882	-11.67956257	-0.1769613475	-88.98666382	1.0
5	0	1.413589954	0.1823999882	-11.62932396	-0.04494745284	-89.0496521	1.0
[LeftShoulder]
1	0.3649300039	1.825889945	-0.04271000251	-10.93332863	-6.387950897	1.054977059	1.0
2	0.3649300039	1.825889945	-0.04271000251	-10.70541382	-6.396546364	1.15581131	1.0
3	0.3649300039	1.825889945	-0.04271000251	-10.74414349	-6.461333275	1.042322636	1.0
4	0.3649300039	1.825889945	-0.04271000251	-10.70750618	-6.466603279	1.088998437	1.0
5	0.3649300039	1.825889945	-0.04271000251	-10.73657322	-6.542282581	0.9410712123	1.0
[LeftArm]
1	1.24003005	0	0	40.64517593	9.533231735	-79.36523438	1.0
2	1.24003005	0	0	40.77458954	9.174647331	-79.64597321	1.0
3	1.24003005	0	0	41.18680573	9.079251289	-79.61965942	1.0
4	1.24003005	0	0	41.25682068	8.755241394	-79.7673645	1.0
5	1.24003005	0	0	41.68749619	8.686444283	-79.77828979	1.0
[LeftForeArm]
1	2.847419977	0	0	-12.19639397	-13.38820553	-3.592977762	1.0
2	2.847419977	0	0	-12.202528	-13.20942211	-3.558513165	1.0
3	2.847419977	0	0	-12.28889179	-13.27044296	-3.386494398	1.0
4	2.847419977	0	0	-12.11838055	-13.31097031	-3.438207865	1.0
5	2.847419977	0	0	-12.17226887	-13.39748478	-3.306738138	1.0
[LeftHand]
1	2.258270025	0	0	-12.46957588	-5.148416519	-3.304943085	1.0
2	2.258270025	0	0	-12.47432613	-5.115765095	-3.14051199	1.0
3	2.258270025	0	0	-12.54924774	-5.103642464	-2.998016596	1.0
4	2.258270025	0	0	-12.39524746	-5.112601757	-2.786147118	1.0
5	2.258270025	0	0	-12.43327522	-5.224542618	-2.792538881	1.0
[RightShoulder]
1	-0.3646599948	1.825889945	-0.04271000251	-8.43512249	8.911766052	-179.7949371	1.0
2	-0.3646599948	1.825889945	-0.04271000251	-8.456321716	8.81185627	-179.8362579	1.0
3	-0.3646599948	1.825889945	-0.04271000251	-8.481923103	8.98207283	-179.8405762	1.0
4	-0.3646599948	1.825889945	-0.04271000251	-8.539105415	8.945153236	-179.8563232	1.0
5	-0.3646599948	1.825889945	-0.04271000251	-8.564090729	8.934514046	-179.8940735	1.0
[RightArm]
1	-1.24003005	0	0	39.3450737	-5.973958492	-99.04278564	1.0
2	-1.24003005	0	0	39.29996109	-6.154620171	-99.09551239	1.0
3	-1.24003005	0	0	38.44387054	-6.110698223	-99.29193115	1.0
4	-1.24003005	0	0	38.65312576	-6.149697304	-99.39011383	1.0
5	-1.24003005	0	0	38.53113937	-6.134667873	-99.4397049	1.0
[RightForeArm]
1	-2.847419977	0	0	0.4504485726	12.55039883	179.3398438	1.0
2	-2.847419977	0	0	0.4396877289	12.52907181	179.3262329	1.0
3	-2.847419977	0	0	0.9990404844	12.5479269	179.7823486	1.0
4	-2.847419977	0	0	0.8649253249	12.50114918	179.6652222	1.0
5	-2.847419977	0	0	0.9905948043	12.43518829	179.7154999	1.0
[RightHand]
1	-2.258270025	0	0	0.2348177135	6.070440292	174.5715637	1.0
2	-2.258270025	0	0	0.2326245755	6.094660282	174.7304382	1.0
3	-2.258270025	0	0	0.7355550528	6.03394413	174.556366	1.0
4	-2.258270025	0	0	0.6151252389	6.03073597	174.5715332	1.0
5	-2.258270025	0	0	0.7317498326	6.001718044	174.4804382	1.0
[LeftUpLeg]
1	0.9119900465	0	0	6.320824146	-6.274561405	92.54880524	1.0
2	0.9119900465	0	0	5.995733738	-5.930691242	92.669487	1.0
3	0.9119900465	0	0	5.747393608	-5.699119568	92.79675293	1.0
4	0.9119900465	0	0	5.620536804	-5.967930794	92.88423157	1.0
5	0.9119900465	0	0	5.446956158	-6.064078331	93.05748749	1.0
[LeftLeg]
1	0	-4.371409893	0	3.494749069	-4.196044445	89.88420868	1.0
2	0	-4.371409893	0	3.762472868	-4.307690144	89.91772461	1.0
3	0	-4.371409893	0	3.856434107	-4.442281723	90.01254272	1.0
4	0	-4.371409893	0	3.714284658	-4.325299263	89.99108887	1.0
5	0	-4.371409893	0	3.53063345	-4.241316795	89.98423004	1.0
[LeftFoot]
1	0	-3.918009996	0	-83.56402588	105.1603699	-43.70730591	1.0
2	0	-3.918009996	0	-84.3285141	104.8818893	-44.50515747	1.0
3	0	-3.918009996	0	-84.70218658	104.6745605	-44.92232513	1.0
4	0	-3.918009996	0	-84.21109772	104.6691132	-44.46640015	1.0
5	0	-3.918009996	0	-84.04776001	104.596405	-44.40446472	1.0
[LeftToeBase]
1	0	-0.5927900076	1.367989898	0	0	0	1.0
2	0	-0.5927900076	1.367989898	0	0	0	1.0
3	0	-0.5927900076	1.367989898	0	0	0	1.0
4	0	-0.5927900076	1.367989898	0	0	0	1.0
5	0	-0.5927900076	1.367989898	0	0	0	1.0
[RightUpLeg]
1	-0.9119900465	0	0	7.095551491	-9.232759476	92.26869965	1.0
2	-0.9119900465	0	0	6.957242966	-9.233222008	92.41177368	1.0
3	-0.9119900465	0	0	6.861104012	-8.816116333	92.54319763	1.0
4	-0.9119900465	0	0	6.758946896	-9.230184555	92.5579071	1.0
5	-0.9119900465	0	0	6.619637966	-9.143233299	92.67181396	1.0
[RightLeg]
1	0	-4.371409893	0	2.458830357	-3.196274519	89.54042053	1.0
2	0	-4.371409893	0	2.388538361	-3.270982027	89.48275757	1.0
3	0	-4.371409893	0	2.228059769	-3.445464134	89.66716766	1.0
4	0	-4.371409893	0	2.120316505	-3.247385025	89.75894165	1.0
5	0	-4.371409893	0	1.932108164	-3.367418289	89.92411804	1.0
[RightFoot]
1	0	-3.918009996	0	46.31558609	66.81018066	83.69345856	1.0
2	0	-3.918009996	0	46.33737946	66.80166626	83.7104187	1.0
3	0	-3.918009996	0	45.61448288	66.80653381	82.85746765	1.0
4	0	-3.918009996	0	45.85389709	66.92353058	83.12006378	1.0
5	0	-3.918009996	0	45.87260818	66.97113037	82.99331665	1.0
[RightToeBase]
1	0	-0.5927900076	1.367989898	0	0	0	1.0
2	0	-0.5927900076	1.367989898	0	0	0	1.0
3	0	-0.5927900076	1.367989898	0	0	0	1.0
4	0	-0.5927900076	1.367989898	0	0	0	1.0
5	0	-0.5927900076	1.367989898	0	0	0	1.0
[EndOfFile]
